<svg width="283" height="40" viewBox="0 0 283 40" fill="none" xmlns="http://www.w3.org/2000/svg">
<path d="M66.3591 11.2317V28.2825H72.3195C75.6045 28.2825 78.3425 25.6015 78.3425 22.3997V17.0991C78.3425 13.905 75.6045 11.2278 72.3195 11.2278H66.3591V11.2317ZM72.3235 6.98047C78.0183 6.98047 82.6782 11.5496 82.6782 17.1029V22.4035C82.6782 27.9684 78.0183 32.5375 72.3235 32.5375H63.1015C62.4882 32.5375 62.0547 32.12 62.0547 31.5111L61.9922 8.00306C61.9922 7.49368 62.4843 6.98047 63.0976 6.98047H72.3235Z" fill="#003862"/>
<path d="M93.4489 11.2317V18.1868C96.0268 16.9459 101.823 14.1348 102.511 13.0777V13.1122C102.632 12.9207 102.702 12.6985 102.702 12.4381C102.702 11.7755 102.175 11.2317 101.433 11.2317H93.4489ZM101.687 6.98047C104.62 6.98047 107.19 9.49672 107.19 12.4075C107.19 14.8356 105.854 16.2412 103.999 17.4859C104.69 19.2822 105.339 20.9328 105.987 22.7291C107.03 25.5326 108.108 28.3782 109.245 31.2238C109.6 32.0894 109.112 32.5375 108.233 32.5375H105.76C105.077 32.5375 104.878 32.1468 104.714 31.7332L100.03 19.5656C97.7728 20.7184 95.7964 21.8061 93.445 22.9857V31.2966C93.445 31.9247 93.4137 32.5413 92.4021 32.5413H90.0898C89.4765 32.5413 89.0781 32.0281 89.0781 31.5149L89.0156 8.00688C89.0156 7.4975 89.4726 6.9843 90.0859 6.9843H101.687V6.98047Z" fill="#003862"/>
<path d="M115.875 32.5375C115.262 32.5375 114.832 32.12 114.832 31.5111L114.766 8.00306C114.766 7.40176 115.262 6.98047 115.875 6.98047H131.608C132.678 6.98047 132.678 7.5856 132.678 8.22519V9.97163C132.678 11.1283 132.522 11.2278 131.382 11.2278H119.168V16.877H130.018C130.628 16.877 131.057 17.3251 131.057 17.9302V20.1018C131.057 20.7107 130.632 21.155 130.018 21.155H119.168V28.2786H131.8C132.94 28.2786 133.108 28.3705 133.108 29.5234V31.2545C133.108 31.8864 133.108 32.5337 132.034 32.5337H115.875V32.5375Z" fill="#003862"/>
<path d="M154.742 30.9993C153.282 32.2824 151.188 32.8186 148.848 32.8186H146.368C143.54 32.8186 140.997 31.4168 139.599 29.2146C139.115 28.5099 138.818 27.8129 138.685 27.135C138.423 25.8251 138.455 25.2813 138.455 24.5498V24.6072C138.455 23.9753 138.494 23.3663 139.501 23.3663H141.716C142.236 23.3663 142.564 23.6229 142.696 24.1323C142.821 24.5498 142.786 24.6455 142.786 25.1549C142.786 25.3158 142.818 25.6068 142.861 26.0205C143.212 27.5831 144.681 28.7359 146.364 28.7359H148.844C150.805 28.7359 152.489 27.675 152.793 25.9898C152.821 25.7638 152.856 25.5723 152.856 25.3426C152.887 24.9366 152.918 23.9753 152.368 23.4927C151.45 22.7306 149.462 22.405 147.122 21.8688C142.95 20.9343 138.455 19.6896 138.455 15.4116V14.9635C138.455 14.2894 138.423 13.6192 138.65 12.7613L138.619 12.7881C139.306 9.24925 142.653 6.66406 146.364 6.66406H148.844C150.805 6.66406 152.657 7.36877 154.125 8.51391C155.59 9.66672 156.504 11.8689 156.402 14.3239C156.367 14.9597 156.367 15.5686 155.36 15.5686H153.211C152.594 15.5686 152.192 15.0631 152.172 14.546C152.071 11.8306 150.93 10.8042 148.844 10.8042H146.364C144.704 10.8042 143.181 11.9876 142.818 13.6154V13.5886C142.72 14.1324 142.525 15.086 143.345 15.8865C143.763 16.3001 144.263 16.5912 144.743 16.7176L148.493 17.744C150.446 18.2802 151.844 18.6325 152.661 18.9198C153.539 19.2109 154.285 19.5939 154.942 20.0113C156.274 20.8999 157.219 22.4318 157.219 24.5996C157.219 27.0354 156.211 29.7163 154.742 30.9993Z" fill="#003862"/>
<path d="M179.2 30.9993C177.724 32.2824 175.649 32.8186 173.302 32.8186H170.826C167.99 32.8186 165.455 31.4168 164.053 29.2146C163.561 28.5099 163.275 27.8129 163.139 27.135C162.873 25.8251 162.908 25.2813 162.908 24.5498V24.6072C162.908 23.9753 162.943 23.3663 163.955 23.3663H166.166C166.693 23.3663 167.017 23.6229 167.146 24.1323C167.275 24.5498 167.244 24.6455 167.244 25.1549C167.244 25.3158 167.275 25.6068 167.31 26.0205C167.67 27.5831 169.13 28.7359 170.826 28.7359H173.302C175.251 28.7359 176.954 27.675 177.239 25.9898C177.278 25.7638 177.31 25.5723 177.31 25.3426C177.337 24.9366 177.372 23.9753 176.821 23.4927C175.911 22.7306 173.919 22.405 171.572 21.8688C167.408 20.9343 162.908 19.6896 162.908 15.4116V14.9635C162.908 14.2894 162.873 13.6192 163.1 12.7613L163.068 12.7881C163.756 9.24925 167.111 6.66406 170.826 6.66406H173.302C175.251 6.66406 177.114 7.36877 178.579 8.51391C180.044 9.66672 180.954 11.8689 180.856 14.3239C180.829 14.9597 180.829 15.5686 179.817 15.5686H177.661C177.044 15.5686 176.653 15.0631 176.626 14.546C176.524 11.8306 175.384 10.8042 173.302 10.8042H170.826C169.169 10.8042 167.638 11.9876 167.271 13.6154V13.5886C167.174 14.1324 166.974 15.086 167.798 15.8865C168.224 16.3001 168.709 16.5912 169.201 16.7176L172.947 17.744C174.896 18.2802 176.298 18.6325 177.114 18.9198C177.993 19.2109 178.743 19.5939 179.391 20.0113C180.727 20.8999 181.676 22.4318 181.676 24.5996C181.68 27.0354 180.673 29.7163 179.2 30.9993Z" fill="#003862"/>
<path d="M206.37 24.4142C206.37 28.8838 202.53 32.5375 197.964 32.5375H195.464C191.16 32.5375 187.547 29.1787 187.547 24.8355V8.00306C187.547 7.32899 187.902 6.98047 188.582 6.98047H190.765C191.781 6.98047 191.808 7.5856 191.808 8.22519V24.8317C191.808 26.7811 193.507 28.3399 195.464 28.3399H197.964C200.218 28.3399 202.073 26.5896 202.073 24.4104V8.22519C202.073 7.5856 202.14 6.98047 203.143 6.98047H205.296C206.018 6.98047 206.37 7.32899 206.37 8.00306V24.4142Z" fill="#003862"/>
<path d="M217.422 11.2317V19.3702C219.085 18.5123 221.038 17.4821 222.706 16.494C223.484 16.0842 225.437 14.8318 225.796 14.3262C226.226 13.6598 226.351 12.9513 226.194 12.2887C226.022 11.5802 225.569 11.2317 224.886 11.2317H217.422ZM225.96 19.5311L217.422 24.1615V31.2928C217.422 31.9209 217.398 32.5375 216.386 32.5375H214.164C213.547 32.5375 213.156 32.0243 213.156 31.5111L213.094 8.00306C213.094 7.49368 213.547 6.98047 214.164 6.98047H225.112C232.182 6.98047 232.799 15.1267 228.503 17.934C227.362 18.6617 226.577 19.1787 225.96 19.5311Z" fill="#003862"/>
<path d="M66.3591 11.3918V28.4425H72.3195C75.6045 28.4425 78.3425 25.7616 78.3425 22.5598V17.2592C78.3425 14.065 75.6045 11.3879 72.3195 11.3879H66.3591V11.3918ZM72.3235 7.14055C78.0183 7.14055 82.6782 11.7096 82.6782 17.263V22.5636C82.6782 28.1247 78.0183 32.6976 72.3235 32.6976H63.1015C62.4882 32.6976 62.0547 32.2801 62.0547 31.6712L61.9922 8.15931C61.9922 7.64993 62.4843 7.13672 63.0976 7.13672H72.3235V7.14055Z" fill="#003862"/>
<path d="M93.445 11.3918V18.3469C96.0229 17.106 101.819 14.2948 102.507 13.2378V13.2722C102.628 13.0807 102.698 12.8586 102.698 12.5982C102.698 11.9356 102.171 11.3918 101.429 11.3918H93.445ZM101.683 7.14055C104.616 7.14055 107.186 9.6568 107.186 12.5675C107.186 14.9919 105.85 16.4013 103.995 17.646C104.686 19.4422 105.335 21.0929 105.983 22.8892C107.026 25.6927 108.104 28.5383 109.241 31.3839C109.596 32.2495 109.108 32.6976 108.229 32.6976H105.757C105.073 32.6976 104.874 32.3069 104.71 31.8933L100.027 19.7218C97.7689 20.8746 95.7925 21.9623 93.4411 23.1419V31.4529C93.4411 32.081 93.4098 32.6976 92.3982 32.6976H90.0859C89.4726 32.6976 89.0742 32.1844 89.0742 31.6712L89.0156 8.15931C89.0156 7.64993 89.4726 7.13672 90.0859 7.13672H101.683V7.14055Z" fill="#003862"/>
<path d="M115.875 32.6937C115.262 32.6937 114.832 32.2763 114.832 31.6673L114.766 8.15931C114.766 7.55801 115.262 7.13672 115.875 7.13672H131.608C132.678 7.13672 132.678 7.74567 132.678 8.38527V10.1317C132.678 11.2883 132.522 11.3879 131.382 11.3879H119.168V17.037H130.018C130.628 17.037 131.057 17.4851 131.057 18.0903V20.2618C131.057 20.8708 130.632 21.3151 130.018 21.3151H119.168V28.4387H131.8C132.94 28.4387 133.108 28.5306 133.108 29.6834V31.4146C133.108 32.0465 133.108 32.6937 132.034 32.6937H115.875Z" fill="#003862"/>
<path d="M154.742 31.14C153.282 32.423 151.188 32.9592 148.848 32.9592H146.368C143.54 32.9592 140.997 31.5574 139.599 29.3552C139.115 28.6505 138.818 27.9535 138.685 27.2756C138.423 25.9658 138.455 25.4219 138.455 24.6904V24.7478C138.455 24.1159 138.494 23.5069 139.501 23.5069H141.716C142.236 23.5069 142.564 23.7636 142.696 24.2729C142.821 24.6904 142.786 24.7861 142.786 25.2955C142.786 25.4564 142.818 25.7475 142.861 26.1611C143.212 27.7237 144.681 28.8765 146.364 28.8765H148.844C150.805 28.8765 152.489 27.8156 152.793 26.1304C152.821 25.9083 152.856 25.713 152.856 25.4832C152.887 25.0772 152.918 24.1159 152.368 23.6333C151.45 22.8712 149.462 22.5456 147.122 22.0095C142.95 21.075 138.455 19.8302 138.455 15.5522V15.1041C138.455 14.43 138.423 13.7598 138.65 12.9019L138.619 12.9287C139.306 9.38988 142.653 6.80469 146.364 6.80469H148.844C150.805 6.80469 152.657 7.50939 154.125 8.65454C155.59 9.80734 156.504 12.0095 156.402 14.4645C156.367 15.1003 156.367 15.7092 155.36 15.7092H153.211C152.594 15.7092 152.192 15.2037 152.172 14.6867C152.071 11.9712 150.93 10.9448 148.844 10.9448H146.364C144.704 10.9448 143.181 12.1283 142.818 13.756V13.7292C142.72 14.273 142.525 15.2267 143.345 16.0271C143.763 16.4408 144.263 16.7318 144.743 16.8582L148.493 17.8846C150.446 18.4208 151.844 18.7732 152.661 19.0604C153.539 19.3515 154.285 19.7345 154.942 20.1519C156.274 21.0405 157.219 22.5724 157.219 24.7402C157.219 27.176 156.211 29.8569 154.742 31.14Z" fill="#003862"/>
<path d="M179.2 31.14C177.724 32.423 175.649 32.9592 173.302 32.9592H170.826C167.99 32.9592 165.455 31.5574 164.053 29.3552C163.561 28.6505 163.275 27.9535 163.139 27.2756C162.873 25.9658 162.908 25.4219 162.908 24.6904V24.7478C162.908 24.1159 162.943 23.5069 163.955 23.5069H166.166C166.693 23.5069 167.017 23.7636 167.146 24.2729C167.275 24.6904 167.244 24.7861 167.244 25.2955C167.244 25.4564 167.275 25.7475 167.31 26.1611C167.67 27.7237 169.13 28.8765 170.826 28.8765H173.302C175.251 28.8765 176.954 27.8156 177.239 26.1304C177.278 25.9083 177.31 25.713 177.31 25.4832C177.337 25.0772 177.372 24.1159 176.821 23.6333C175.911 22.8712 173.919 22.5456 171.572 22.0095C167.408 21.075 162.908 19.8302 162.908 15.5522V15.1041C162.908 14.43 162.873 13.7598 163.1 12.9019L163.068 12.9287C163.756 9.38988 167.111 6.80469 170.826 6.80469H173.302C175.251 6.80469 177.114 7.50939 178.579 8.65454C180.044 9.80734 180.954 12.0095 180.856 14.4645C180.829 15.1003 180.829 15.7092 179.817 15.7092H177.661C177.044 15.7092 176.653 15.2037 176.626 14.6867C176.524 11.9712 175.384 10.9448 173.302 10.9448H170.826C169.169 10.9448 167.638 12.1283 167.271 13.756V13.7292C167.174 14.273 166.974 15.2267 167.798 16.0271C168.224 16.4408 168.709 16.7318 169.201 16.8582L172.947 17.8846C174.896 18.4208 176.298 18.7732 177.114 19.0604C177.993 19.3515 178.743 19.7345 179.391 20.1519C180.727 21.0405 181.676 22.5724 181.676 24.7402C181.68 27.176 180.673 29.8569 179.2 31.14Z" fill="#003862"/>
<path d="M206.37 24.5743C206.37 29.0438 202.53 32.6976 197.964 32.6976H195.464C191.16 32.6976 187.547 29.3387 187.547 24.9956V8.15931C187.547 7.48524 187.902 7.13672 188.582 7.13672H190.765C191.781 7.13672 191.808 7.74567 191.808 8.38527V24.9918C191.808 26.9412 193.507 28.5 195.464 28.5H197.964C200.218 28.5 202.073 26.7497 202.073 24.5705V8.38527C202.073 7.74567 202.14 7.13672 203.143 7.13672H205.296C206.018 7.13672 206.37 7.48524 206.37 8.15931V24.5743Z" fill="#003862"/>
<path d="M217.422 11.3918V19.5303C219.085 18.6724 221.038 17.6422 222.706 16.6541C223.484 16.2443 225.437 14.9919 225.796 14.4863C226.226 13.8199 226.351 13.1114 226.194 12.4488C226.022 11.7403 225.569 11.3918 224.886 11.3918H217.422ZM225.96 19.6912L217.422 24.3215V31.4529C217.422 32.081 217.398 32.6976 216.386 32.6976H214.164C213.547 32.6976 213.156 32.1844 213.156 31.6712L213.094 8.15931C213.094 7.64993 213.547 7.13672 214.164 7.13672H225.112C232.182 7.13672 232.799 15.2829 228.503 18.0903C227.362 18.8218 226.577 19.3388 225.96 19.6912Z" fill="#003862"/>
<path d="M43.9859 12.8387C43.3882 10.6556 42.4274 8.74831 41.1033 7.10144C39.7713 5.45841 38.0918 4.19837 36.0646 3.31749C34.0296 2.44044 31.3657 2 28.0613 2H11.3125V10.7169C15.0818 13.4706 19.1518 14.8072 22.5812 15.4392V10.1003H25.3974C28.3151 10.1003 30.4087 10.8011 31.6704 12.1952C32.932 13.597 33.5648 16.1898 33.5648 19.9814C33.5648 22.8424 33.2796 24.9144 32.7172 26.1936C32.1508 27.4728 31.3735 28.3651 30.3775 28.8783C29.3815 29.3877 27.7019 29.6443 25.3505 29.6443H22.5851V27.6834C18.8276 28.3728 15.3747 28.6179 13.5897 28.6179C12.7929 28.6179 12.039 28.5873 11.3164 28.5413V37.7714H28.0652C30.0728 37.7714 32.3109 37.4497 34.7834 36.7948C36.5919 36.3275 38.2832 35.3777 39.8612 33.953C41.4353 32.5282 42.6695 30.7665 43.5601 28.6562C44.4468 26.5497 44.892 23.5854 44.892 19.7631C44.8842 17.3312 44.5874 15.0217 43.9859 12.8387Z" fill="#003862"/>
<path d="M1.02344 8.18359L1.01562 12.5497C7.78465 20.3551 16.3621 22.1053 22.6039 22.1053C26.9239 22.1053 29.9588 21.2628 29.99 21.2551L30.1619 21.2091C30.1541 20.9027 30.1541 20.5887 30.1502 20.2785C29.8299 20.3321 28.1738 20.5925 25.7247 20.5925C19.5611 20.5887 8.41742 18.9303 1.02344 8.18359Z" fill="#003862"/>
<path d="M29.9197 23.0808L30.2127 22.9697C30.2049 22.7936 30.1932 22.468 30.1814 22.0582C29.826 22.154 26.8301 22.9315 22.6039 22.9315C16.5379 22.9315 7.9487 21.3076 1.01172 13.8086L1 17.6347C7.40187 23.3796 14.5771 24.7047 19.7603 24.7047C25.5841 24.7009 29.8807 23.0961 29.9197 23.0808Z" fill="#003862"/>
<path d="M25.7286 19.7786C28.3456 19.7786 30.0486 19.4722 30.0682 19.4684L30.158 19.4492C30.1658 18.9935 30.1814 18.5875 30.2205 18.3271C30.2205 18.3271 9.99152 20.4757 1.04297 2.00781L1.03125 6.69563C8.19088 18.0513 19.5143 19.7786 25.7286 19.7786Z" fill="#003862"/>
<path d="M21.2485 25.4749C20.7642 25.494 20.2759 25.5093 19.7681 25.5093C14.2178 25.5093 7.26907 24.0884 1.00781 18.7266L1 23.039C1.98821 23.7629 8.28852 27.8111 21.2485 25.4749Z" fill="#003862"/>
<path d="M232.156 30.714C232.156 29.3084 233.125 28.3203 234.48 28.3203C235.836 28.3203 236.765 29.3084 236.765 30.714C236.765 32.0813 235.875 33.1077 234.441 33.1077C233.086 33.1077 232.156 32.0813 232.156 30.714Z" fill="#003862"/>
<path d="M260.998 31.5459C259.487 32.0783 256.503 32.9515 252.976 32.9515C249.023 32.9515 245.769 31.9634 243.207 29.5697C240.961 27.4403 239.562 24.0202 239.562 20.0294C239.602 12.3925 244.949 6.80469 253.71 6.80469C256.733 6.80469 259.096 7.45194 260.221 7.9843L259.409 10.6844C258.014 10.0754 256.268 9.58138 253.636 9.58138C247.281 9.58138 243.133 13.4573 243.133 19.88C243.133 26.3794 247.124 30.217 253.21 30.217C255.421 30.217 256.928 29.9144 257.706 29.5314V21.8946H252.394V19.2328H260.998V31.5459Z" fill="#003862"/>
<path d="M279.683 20.6781H269.527V29.912H280.843V32.6849H266.156V7.07422H280.261V9.84707H269.527V17.9435H279.683V20.6781Z" fill="#003862"/>
</svg>
