<svg width="18" height="18" viewBox="0 0 18 18" fill="none" xmlns="http://www.w3.org/2000/svg">
<g clip-path="url(#clip0_429_6103)">
<path fill-rule="evenodd" clip-rule="evenodd" d="M6.45103 3.23257C6.80799 3.58953 6.80799 4.16828 6.45103 4.52525L4.35518 6.62109H9.46094C12.9947 6.62109 15.8594 9.48577 15.8594 13.0195V14.8477C15.8594 15.3525 15.4501 15.7617 14.9453 15.7617C14.4405 15.7617 14.0312 15.3525 14.0312 14.8477V13.0195C14.0312 10.4954 11.9851 8.44922 9.46094 8.44922H4.35518L6.45103 10.5451C6.80799 10.902 6.80799 11.4808 6.45103 11.8377C6.09406 12.1947 5.51531 12.1947 5.15835 11.8377L1.5021 8.1815C1.14513 7.82453 1.14513 7.24578 1.5021 6.88882L5.15835 3.23257C5.51531 2.8756 6.09406 2.8756 6.45103 3.23257Z" fill="#39506A"/>
</g>
<defs>
<clipPath id="clip0_429_6103">
<rect width="18" height="18" fill="white"/>
</clipPath>
</defs>
</svg>
