<svg width="18" height="18" viewBox="0 0 18 18" fill="none" xmlns="http://www.w3.org/2000/svg">
<path d="M12.8141 3.17454L13.9755 3.58676C13.9364 3.06914 13.6202 2.58541 13.0973 2.36371C12.4496 2.08918 11.6843 2.33169 11.3131 2.9292C11.0767 3.30969 11.0388 3.74929 11.1637 4.13656L12.9706 5.07031C13.1553 5.01215 13.3279 4.91649 13.4773 4.78824L12.8161 4.32635C12.6325 4.1981 12.54 3.97501 12.5789 3.75444L12.666 3.26079C12.6781 3.19245 12.7487 3.15131 12.8141 3.17454Z" fill="#39506A"/>
<path d="M6.22578 11.043H3.73795C3.63361 11.043 3.56326 10.9584 3.58081 10.854C3.59836 10.7497 3.69716 10.6651 3.8015 10.6651H6.2893L6.22578 11.043Z" fill="#39506A"/>
<path d="M5.24162 11.8047H1.87076C1.76643 11.8047 1.69607 11.7201 1.71362 11.6158C1.73114 11.5115 1.82995 11.4269 1.93428 11.4269H5.30514L5.24162 11.8047Z" fill="#39506A"/>
<path d="M4.56876 12.5586H0.159846C0.0555101 12.5586 -0.014846 12.474 0.00267643 12.3697C0.0202285 12.2654 0.119029 12.1808 0.223365 12.1808H4.63231L4.56876 12.5586Z" fill="#39506A"/>
<path d="M4.08424 13.3203H2.3317C2.22736 13.3203 2.15701 13.2357 2.17456 13.1314C2.19211 13.0271 2.29091 12.9425 2.39525 12.9425H4.14776L4.08424 13.3203Z" fill="#39506A"/>
<path d="M10.5443 10.2969H6.12803C6.02213 10.2969 5.94029 10.24 5.93182 10.1606L5.89122 9.77955C5.88201 9.69303 5.98182 9.61169 6.09716 9.61169H9.91233C10.3297 9.61169 10.6641 9.81909 10.7385 10.1241C10.7593 10.2097 10.6613 10.2969 10.5443 10.2969Z" fill="#39506A"/>
<path d="M17.7102 11.8328C17.2384 11.3148 16.5018 11.0918 15.7342 11.2263L14.8183 8.14286C14.8093 8.11116 14.8421 8.07632 14.8754 8.08218L15.4593 8.19368C15.5272 8.20561 15.6006 8.15425 15.6168 8.08345L15.7976 6.74588C15.8149 6.67062 15.7595 6.61006 15.683 6.62062L14.1886 6.83424C14.0909 6.84776 14.0152 6.94485 14.0317 7.03583C14.2418 8.19468 15.0118 12.9673 11.9186 12.9673H10.6547C8.97055 12.9673 9.94441 11.2468 10.4216 10.6145C10.4633 10.5593 10.4345 10.4898 10.3705 10.4898H6.27639C6.19718 10.4898 6.11978 10.5465 6.09255 10.6244L5.92896 11.0413C4.76362 11.4655 3.81558 12.4564 3.56535 13.6246C3.55037 13.6946 3.59601 13.7535 3.6661 13.7535H4.98147L13.3199 13.7566C13.3041 13.9006 13.3011 14.0447 13.3119 14.1871C13.3154 14.2336 13.3639 14.2567 13.4092 14.2324L17.6795 11.9465C17.7248 11.9222 17.7398 11.8653 17.7102 11.8328Z" fill="#39506A"/>
<path d="M7.92648 9.42188H4.44706C4.26742 9.42188 4.14628 9.27628 4.1765 9.09664L4.76158 5.61719C4.79177 5.43756 4.96187 5.29196 5.14151 5.29196H8.62093C8.80056 5.29196 8.92171 5.43756 8.89152 5.61719L8.30644 9.09664C8.27622 9.27628 8.10612 9.42188 7.92648 9.42188Z" fill="#39506A"/>
<path d="M11.9403 9.98557C11.9478 9.96363 11.9563 9.94206 11.967 9.92184L11.9403 9.98557ZM12.1394 4.9869C12.0665 4.89934 11.9876 4.8268 11.8688 4.76295C11.4011 4.51175 10.7489 4.72143 10.412 5.23126C10.412 5.23126 10.3817 5.27714 10.3286 5.35744C10.3153 5.37754 10.3007 5.39977 10.2847 5.42395C10.2665 5.45237 10.2468 5.48309 10.2258 5.51595C10.1844 5.58142 10.1336 5.65891 10.0886 5.73498C10.0418 5.81273 9.99 5.89658 9.93912 5.98636C9.88694 6.07569 9.83321 6.17034 9.77973 6.269C9.72477 6.36694 9.67196 6.47015 9.61714 6.57428C9.56378 6.67941 9.50982 6.78591 9.45826 6.89436C9.40661 7.00266 9.35573 7.11144 9.30819 7.22086C9.25912 7.32845 9.21543 7.43978 9.17151 7.54494C9.13027 7.65434 9.08878 7.75625 9.05412 7.86082C9.03648 7.91259 9.01883 7.96154 9.00297 8.01136C8.98758 8.06191 8.97269 8.11078 8.95842 8.15769C8.94392 8.20348 8.93149 8.25123 8.92 8.2969C8.90858 8.34218 8.89772 8.38516 8.88753 8.42556C8.86909 8.51172 8.85471 8.58895 8.84302 8.65137C8.82405 8.79155 8.8165 8.87117 8.8165 8.87117C8.7774 9.28115 9.02801 9.6313 9.4408 9.69538C9.55256 9.71272 9.66616 9.7068 9.77689 9.68253C9.80862 9.69325 9.84014 9.70447 9.87196 9.71506L10.2348 9.83698C10.4774 9.91693 10.7206 9.99569 10.9644 10.0733L11.697 10.3033L11.8303 10.3442L11.695 10.7929L11.577 11.1893L11.4613 11.5861L11.3461 11.9829L11.2315 12.38C11.1577 12.6451 11.0814 12.9098 11.0102 13.1754L11.8245 13.3281C11.9365 13.0701 12.0434 12.8112 12.1529 12.5527L12.3132 12.1643L12.4728 11.7758L12.632 11.3871L12.7888 10.9981L13.0771 10.2759C13.1318 10.1603 13.1632 10.0336 13.1651 9.9121C13.1678 9.78246 13.1377 9.65897 13.0795 9.55236C13.0217 9.44565 12.9327 9.35674 12.8251 9.2966C12.7984 9.28106 12.7704 9.26862 12.7418 9.2569L12.7071 9.24308L12.663 9.22526L12.3105 9.08277L11.6031 8.80244C11.3668 8.70992 11.13 8.61855 10.8926 8.52836L10.7362 8.47002C10.7398 8.46013 10.7433 8.45031 10.7478 8.43939C10.7587 8.41065 10.7701 8.38066 10.7819 8.34967C10.7944 8.31812 10.8098 8.28373 10.8241 8.24936C10.8513 8.18123 10.8894 8.10436 10.9239 8.02725C10.9638 7.94816 11.001 7.86727 11.0464 7.78339C11.0891 7.69995 11.136 7.61488 11.1835 7.52982C11.2307 7.44484 11.281 7.35989 11.3301 7.2766C11.381 7.19363 11.4294 7.11153 11.4802 7.03347C11.5295 6.9548 11.5787 6.87971 11.6262 6.80908C11.6413 6.78582 11.6565 6.76324 11.6714 6.74122C11.6909 6.74299 11.6952 6.74338 11.7146 6.74515C11.7571 6.84167 11.8011 6.94142 11.8457 7.04277C11.8925 7.15205 11.9401 7.26304 11.9877 7.37404C12.0003 7.40076 12.0099 7.41548 12.0209 7.43235C12.0321 7.4488 12.0443 7.46449 12.0575 7.47926C12.0839 7.50877 12.1141 7.53467 12.1473 7.55637C12.2135 7.60002 12.2924 7.62654 12.3755 7.63388C12.4338 7.63744 12.4919 7.64096 12.5496 7.64448C12.6666 7.65138 12.7814 7.65961 12.8924 7.66807C13.1145 7.68397 13.3211 7.70181 13.4977 7.71871C13.6745 7.73443 13.8204 7.75308 13.9232 7.76362C14.0258 7.7751 14.0839 7.78339 14.0839 7.78339C14.0893 7.78416 14.0957 7.7849 14.1013 7.78537C14.277 7.80032 14.4559 7.66792 14.5008 7.48968C14.5457 7.31144 14.4396 7.15483 14.2639 7.13991C14.2639 7.13991 14.2049 7.13488 14.1024 7.12307C14.0002 7.11028 13.8532 7.09563 13.6787 7.07142C13.5038 7.04833 13.3004 7.01959 13.0833 6.98555C12.9746 6.96904 12.8624 6.95146 12.7488 6.93216C12.7486 6.9321 12.7484 6.93207 12.7482 6.93204C12.708 6.92547 12.6754 6.89617 12.6645 6.85698L12.6597 6.83975C12.6446 6.78499 12.6295 6.73044 12.6145 6.67633C12.5856 6.56762 12.5571 6.46062 12.5296 6.35708C12.4755 6.14951 12.4263 5.95519 12.386 5.78769C12.3455 5.62064 12.3149 5.47989 12.292 5.38198C12.2504 5.20001 12.2127 5.0878 12.1394 4.9869Z" fill="#39506A"/>
<path d="M6.06126 14.7374C5.52789 14.8589 5.06698 14.5415 5.03176 14.0286C5.03007 14.0039 5.03028 13.9794 5.03057 13.9548H4.17837C4.17058 14.0458 4.16969 14.1374 4.17627 14.2289C4.24582 15.1958 5.11759 15.7913 6.12345 15.5592C6.93108 15.3728 7.57912 14.7094 7.76734 13.9548H6.91584C6.79543 14.3269 6.46588 14.6453 6.06126 14.7374Z" fill="#39506A"/>
<path d="M17.67 13.3844C17.6414 12.9861 17.4763 12.651 17.222 12.4106L16.3075 12.9019C16.5906 13.0043 16.7918 13.2532 16.8145 13.5848C16.8497 14.0977 16.4459 14.612 15.9125 14.7335C15.3792 14.855 14.9182 14.5376 14.883 14.0247C14.874 13.8937 14.894 13.7626 14.9371 13.638L14.0234 14.1288C14.0239 14.1609 14.0252 14.193 14.0275 14.225C14.0971 15.1919 14.9689 15.7874 15.9747 15.5553C16.9806 15.3232 17.7396 14.3513 17.67 13.3844Z" fill="#39506A"/>
<path d="M4.66599 9.42188H1.8317C1.72736 9.42188 1.65701 9.33731 1.67456 9.23298C1.69211 9.12864 1.79091 9.04408 1.89525 9.04408H4.72951L4.66599 9.42188Z" fill="#39506A"/>
<path d="M4.92003 7.91016H3.59732C3.49301 7.91016 3.42265 7.82556 3.44018 7.72123C3.45773 7.61689 3.55653 7.53233 3.66087 7.53233H4.98354L4.92003 7.91016Z" fill="#39506A"/>
<path d="M5.12028 8.66406H2.82389C2.71955 8.66406 2.6492 8.57947 2.66675 8.47516C2.6843 8.37083 2.7831 8.28623 2.88744 8.28623H5.18383L5.12028 8.66406Z" fill="#39506A"/>
</svg>
