<svg width="18" height="18" viewBox="0 0 18 18" fill="none" xmlns="http://www.w3.org/2000/svg">
<g clip-path="url(#clip0_429_6095)">
<rect width="16.2" height="16.2" transform="translate(0.898438 0.8125)" fill="white"/>
<path fill-rule="evenodd" clip-rule="evenodd" d="M8.99805 6.21289C11.4307 6.21289 13.5972 7.79544 14.9902 9.12891C16.0008 10.0962 16.0008 11.7788 14.9902 12.7461C13.5972 14.0796 11.4307 15.6621 8.99805 15.6621C6.56538 15.6619 4.39886 14.0796 3.00587 12.7461C1.99544 11.7788 1.99544 10.0962 3.00587 9.12891C4.39886 7.79545 6.56538 6.21306 8.99805 6.21289ZM8.99805 8.91211C7.87985 8.91231 6.97364 9.81925 6.97364 10.9375C6.97364 12.0558 7.87985 12.9627 8.99805 12.9629C10.1164 12.9629 11.0234 12.0559 11.0234 10.9375C11.0234 9.81912 10.1164 8.91211 8.99805 8.91211ZM2.56544 4.33594C2.76314 4.13823 3.08356 4.13823 3.28126 4.33594L4.29395 5.34863C4.49146 5.54635 4.49159 5.86682 4.29395 6.06445C4.09631 6.26199 3.77582 6.26193 3.57813 6.06445L2.56544 5.05176C2.36777 4.85409 2.36783 4.53365 2.56544 4.33594ZM14.7158 4.33594C14.9135 4.13833 15.234 4.13827 15.4316 4.33594C15.6291 4.53362 15.6292 4.85411 15.4316 5.05176L14.419 6.06445C14.2213 6.26199 13.9008 6.26193 13.7031 6.06445C13.5055 5.86678 13.5055 5.54634 13.7031 5.34863L14.7158 4.33594ZM8.99805 2.16211C9.27765 2.16211 9.50489 2.38935 9.50489 2.66895V4.01855C9.50489 4.29815 9.27765 4.52539 8.99805 4.52539C8.71864 4.52518 8.4922 4.29802 8.4922 4.01855V2.66895C8.4922 2.38948 8.71864 2.16232 8.99805 2.16211Z" fill="#39506A"/>
</g>
<defs>
<clipPath id="clip0_429_6095">
<rect width="18" height="18" fill="white"/>
</clipPath>
</defs>
</svg>
