<svg width="18" height="18" viewBox="0 0 18 18" fill="none" xmlns="http://www.w3.org/2000/svg">
<path d="M7.40039 13.3989C7.40039 14.0615 6.86326 14.5986 6.20068 14.5986C5.5381 14.5986 5.00098 14.0615 5.00098 13.3989C5.00098 12.7363 5.5381 12.1992 6.20068 12.1992C6.86326 12.1992 7.40039 12.7363 7.40039 13.3989Z" fill="#39506A"/>
<path d="M12.999 13.3989C12.999 14.0615 12.4619 14.5986 11.7993 14.5986C11.1367 14.5986 10.5996 14.0615 10.5996 13.3989C10.5996 12.7363 11.1367 12.1992 11.7993 12.1992C12.4619 12.1992 12.999 12.7363 12.999 13.3989Z" fill="#39506A"/>
<path d="M3.40137 3.40137C2.95965 3.40137 2.60156 3.75945 2.60156 4.20117V12.1992C2.60156 12.6409 2.95965 12.999 3.40137 12.999H4.24117C4.42643 12.0863 5.23334 11.3994 6.20068 11.3994C7.16803 11.3994 7.97493 12.0863 8.1602 12.999H9C9.44172 12.999 9.7998 12.6409 9.7998 12.1992V4.20117C9.7998 3.75945 9.44172 3.40137 9 3.40137H3.40137Z" fill="#39506A"/>
<path d="M12.1992 5.80078C11.7575 5.80078 11.3994 6.15887 11.3994 6.60059V11.4394C11.5286 11.4132 11.6624 11.3994 11.7993 11.3994C12.7667 11.3994 13.5736 12.0863 13.7588 12.999H14.5986C15.0404 12.999 15.3984 12.6409 15.3984 12.1992V8.20019C15.3984 7.98807 15.3142 7.78464 15.1642 7.63465L13.5646 6.03504C13.4146 5.88505 13.2111 5.80078 12.999 5.80078H12.1992Z" fill="#39506A"/>
</svg>
